<svg width="26" height="15" viewBox="0 0 26 15" fill="none" xmlns="http://www.w3.org/2000/svg">
<path fill-rule="evenodd" clip-rule="evenodd" d="M16.5651 2.56544H23.1193V0.790083H16.5651V2.56544ZM18.1178 6.4392C17.7002 6.84097 17.4368 7.38524 17.3291 8.07204H22.4267C22.3728 7.33909 22.108 6.78531 21.6394 6.40391C21.165 6.02522 20.5815 5.83655 19.883 5.83655C19.1263 5.83655 18.5355 6.03744 18.1178 6.4392ZM22.5416 4.05577C23.3318 4.38423 23.9823 4.90544 24.4945 5.61667C24.9616 6.24375 25.2614 6.97126 25.3982 7.79787C25.4782 8.28107 25.5103 8.98144 25.4972 9.89219H17.2564C17.3058 10.9495 17.6958 11.692 18.4409 12.1168C18.892 12.3815 19.4348 12.5145 20.0721 12.5145C20.743 12.5145 21.2916 12.353 21.7122 12.0313C21.9436 11.8562 22.1473 11.6146 22.3219 11.3051H25.3414C25.2614 11.9295 24.8947 12.5661 24.2457 13.2122C23.2329 14.2369 21.814 14.75 19.9907 14.75C18.4845 14.75 17.1559 14.3184 16.0078 13.4524C14.8538 12.5878 14.2805 11.1789 14.2805 9.22982C14.2805 7.40153 14.8 5.99943 15.8375 5.02353C16.878 4.05034 18.2241 3.56035 19.8815 3.56035C20.8667 3.56035 21.7529 3.72594 22.5416 4.05577ZM3.79865 8.11004V11.9146H7.51232C8.17589 11.9146 8.69396 11.8304 9.06212 11.6635C9.73297 11.3513 10.0677 10.7595 10.0677 9.88269C10.0677 9.13889 9.7446 8.62989 9.09413 8.35164C8.73033 8.19691 8.21956 8.11547 7.56472 8.11004H3.79865ZM3.79865 2.60209V5.74969H7.51814C8.18026 5.74969 8.72014 5.6316 9.13633 5.39543C9.54961 5.15926 9.7577 4.7412 9.7577 4.14399C9.7577 3.47755 9.48412 3.03915 8.93696 2.82469C8.46256 2.67674 7.86012 2.60209 7.12815 2.60209H3.79865ZM12.1049 1.64519C12.572 2.2519 12.8063 2.97671 12.8063 3.82231C12.8063 4.69235 12.5721 5.39407 12.0991 5.92342C11.8343 6.21931 11.4457 6.49077 10.932 6.73509C11.712 7.00112 12.2999 7.42054 12.7001 7.99468C13.0959 8.56746 13.2953 9.26512 13.2953 10.0849C13.2953 10.9305 13.0683 11.6893 12.6128 12.3598C12.3247 12.8036 11.9638 13.1782 11.5301 13.4823C11.0426 13.8311 10.4678 14.0686 9.8028 14.1989C9.13777 14.3279 8.4189 14.3903 7.64182 14.3903H0.75V0.125H8.14096C10.0065 0.150789 11.3264 0.657066 12.1049 1.64519Z" fill="white"/>
</svg>
