<svg width="49" height="76" viewBox="0 0 49 76" fill="none" xmlns="http://www.w3.org/2000/svg">
<path d="M18.1769 64.0512L17.9148 74L12.7345 68.8489L7.65469 73.899L7.73879 64.1023M46.9076 13.5199V2.28449C46.9076 2.28449 21.9603 2.19197 9.25348 2.00128C3.13175 1.90936 2.04612 6.80195 2.13855 8.48203M46.9728 47.9473L46.9785 38.1886M40.9055 7.90571V7.79743M40.9055 7.79743C40.9055 7.79743 22.8459 7.79278 11.894 7.77703M40.9055 7.79743C40.9055 7.79743 21.7078 7.79258 10.8959 7.77541M47 14.0129C47 14.0129 15.6761 14.0477 9.2998 14.0109C1.97684 13.9687 2.09243 8.44243 2.09243 8.44243L2 56.8774C2 56.8774 2.2771 63.3434 9.48446 63.4286C12.9955 63.4702 47 63.4286 47 63.4286V14.0129Z" stroke="#7C4CE2" stroke-width="2.4" stroke-linecap="round" stroke-linejoin="round"/>
</svg>
