<?xml version="1.0" encoding="UTF-8" standalone="no"?>
<svg
   xmlns:dc="http://purl.org/dc/elements/1.1/"
   xmlns:cc="http://creativecommons.org/ns#"
   xmlns:rdf="http://www.w3.org/1999/02/22-rdf-syntax-ns#"
   xmlns:svg="http://www.w3.org/2000/svg"
   xmlns="http://www.w3.org/2000/svg"
   xmlns:sodipodi="http://sodipodi.sourceforge.net/DTD/sodipodi-0.dtd"
   xmlns:inkscape="http://www.inkscape.org/namespaces/inkscape"
   version="1.1"
   id="svg2"
   xml:space="preserve"
   width="813.33331"
   height="200"
   viewBox="0 0 813.33331 200"
   sodipodi:docname="buna havere bunjaku.eps"><metadata
     id="metadata8"><rdf:RDF><cc:Work
         rdf:about=""><dc:format>image/svg+xml</dc:format><dc:type
           rdf:resource="http://purl.org/dc/dcmitype/StillImage" /></cc:Work></rdf:RDF></metadata><defs
     id="defs6" /><sodipodi:namedview
     pagecolor="#ffffff"
     bordercolor="#666666"
     borderopacity="1"
     objecttolerance="10"
     gridtolerance="10"
     guidetolerance="10"
     inkscape:pageopacity="0"
     inkscape:pageshadow="2"
     inkscape:window-width="640"
     inkscape:window-height="480"
     id="namedview4" /><g
     id="g10"
     inkscape:groupmode="layer"
     inkscape:label="ink_ext_XXXXXX"
     transform="matrix(1.3333333,0,0,-1.3333333,0,200)"><g
       id="g12"
       transform="scale(0.1)"><path
         d="m 2222.82,1372.43 146.46,-0.19 c 2.14,-204.68 -28.64,-412.791 56.41,-525.338 105.5,-148.957 287.58,-175.695 421.4,-17.746 102.57,145.727 77.5,352.484 71.08,541.774 49.07,0.91 95.93,0.71 145.01,1.62 5.24,-125.82 9.16,-240.88 -4.01,-346.26 19.1,73.82 50.41,142.49 100.44,206.44 141.51,164.72 374.56,196.34 553.33,40.26 75.92,-74.72 127.86,-166.19 150.77,-277.908 8.5,211.738 182.81,380.808 396.63,380.808 214.72,0 389.59,-170.46 396.74,-383.433 h 0.04 v -0.996 c 0.13,-4.176 0.21,-8.359 0.22,-12.563 0,-4.203 -0.11,-8.386 -0.22,-12.562 V 454.77 h -125.76 l 0.01,234.082 C 4460.43,622.523 4365.13,581.91 4260.34,581.91 c -183.75,0 -338.34,124.863 -383.57,294.363 0.28,-11.707 0.3,-23.597 0.04,-35.679 l 0.37,-258.477 -146.47,0.192 c -2.14,204.687 28.65,412.793 -56.4,525.341 -105.5,148.96 -287.58,175.69 -421.39,17.74 -102.59,-145.718 -77.5,-352.484 -71.08,-541.773 -49.09,-0.906 -95.94,-0.703 -145.02,-1.613 -5.24,125.812 -9.16,240.871 4,346.258 -19.09,-73.832 -50.41,-142.496 -100.43,-206.442 -141.52,-164.718 -374.56,-196.34 -553.33,-40.261 -75.92,74.722 -127.86,166.187 -150.77,277.91 -8.51,-211.746 -182.81,-380.805 -396.64,-380.805 -214.72,0 -389.58,170.457 -396.74,383.426 h -0.03 v 0.937 c -0.14,4.2 -0.22,8.399 -0.22,12.629 -0.02,4.223 0.09,8.43 0.22,12.625 v 511.499 h 125.75 V 1265.7 c 70.94,66.33 166.24,106.94 271.02,106.94 183.77,0 338.35,-124.87 383.58,-294.39 -0.28,11.72 -0.3,23.61 -0.03,35.71 z M 4260.34,708.773 c -149.18,0 -270.12,120.942 -270.12,270.125 -0.01,149.192 120.94,270.132 270.12,270.132 149.18,0 270.14,-120.94 270.14,-270.132 C 4530.46,829.715 4409.54,708.77 4260.34,708.773 Z M 1839.65,1245.78 c 149.18,0 270.13,-120.94 270.13,-270.124 0,-149.191 -120.94,-270.133 -270.13,-270.133 -149.2,0 -270.12,120.938 -270.12,270.133 -0.02,149.184 120.94,270.124 270.12,270.124"
         style="fill:#ffffff;fill-opacity:1;fill-rule:evenodd;stroke:none"
         id="path14" /><path
         d="M 8.21484,6.07031 V 279.207 H 63.5352 V 171.629 H 171.113 v 107.578 h 55.305 V 6.07031 H 171.113 V 125.473 H 63.5352 V 6.07031 H 8.21484"
         style="fill:#ffffff;fill-opacity:1;fill-rule:evenodd;stroke:none"
         id="path16" /><path
         d="M 1009.13,6.07031 911.41,279.207 h 59.762 L 1039.64,79.6523 1064.36,6.07031 Z m 60.36,158.91369 37.62,114.223 h 58.75 l -69.91,-196.5195 -26.46,82.2965"
         style="fill:#ffffff;fill-opacity:1;fill-rule:evenodd;stroke:none"
         id="path18" /><path
         d="M 1397.87,6.07031 V 279.207 h 202.19 v -46.16 h -146.87 v -60.652 h 136.57 V 126.238 H 1453.19 V 52.2305 H 1605.4 V 6.07031 h -207.53"
         style="fill:#ffffff;fill-opacity:1;fill-rule:evenodd;stroke:none"
         id="path20" /><path
         d="M 1856.49,6.07031 V 279.207 h 116.17 c 29.19,0 50.43,-2.48 63.64,-7.375 13.29,-4.894 23.85,-13.605 31.8,-26.129 7.94,-12.59 11.95,-26.894 11.95,-43.043 0,-20.539 -5.97,-37.449 -17.99,-50.801 -12.03,-13.351 -29.95,-21.746 -53.85,-25.242 11.87,-6.933 21.68,-14.558 29.37,-22.887 7.74,-8.3316 18.19,-23.1441 31.28,-44.3784 l 33.32,-53.28129 h -65.95 L 1996.7,65.707 c -14.18,21.1719 -23.9,34.523 -29.18,40.055 -5.23,5.468 -10.75,9.285 -16.6,11.32 -5.92,2.035 -15.2,3.051 -27.91,3.051 h -11.2 V 6.07031 Z m 55.32,157.55069 h 40.82 c 26.44,0 42.92,1.145 49.54,3.367 6.54,2.227 11.76,6.106 15.45,11.575 3.74,5.464 5.59,12.335 5.59,20.535 -0.01,9.218 -2.48,16.593 -7.38,22.316 -4.9,5.66 -11.82,9.219 -20.72,10.684 -4.54,0.632 -17.93,0.949 -40.24,0.949 h -43.06 v -69.426"
         style="fill:#ffffff;fill-opacity:1;fill-rule:evenodd;stroke:none"
         id="path22" /><path
         d="M 2336.16,6.07031 V 279.207 h 202.19 v -46.16 h -146.87 v -60.652 h 136.57 V 126.238 H 2391.48 V 52.2305 h 152.21 V 6.07031 h -207.53"
         style="fill:#ffffff;fill-opacity:1;fill-rule:evenodd;stroke:none"
         id="path24" /><path
         d="m 3060.06,279.207 h 109.23 c 21.67,0 37.76,-0.891 48.38,-2.668 10.67,-1.844 20.16,-5.598 28.55,-11.254 8.39,-5.722 15.39,-13.289 20.98,-22.762 5.59,-9.476 8.39,-20.156 8.39,-31.918 -0.01,-12.714 -3.43,-24.48 -10.3,-35.093 -6.87,-10.684 -16.21,-18.629 -27.97,-23.969 16.58,-4.898 29.31,-13.164 38.27,-24.863 8.89,-11.696 13.35,-25.43 13.35,-41.262 0,-12.461 -2.86,-24.543 -8.64,-36.3047 -5.79,-11.7617 -13.67,-21.1719 -23.72,-28.2305 -9.99,-6.9922 -22.31,-11.31639 -37.01,-12.96874 -9.17,-0.95312 -31.33,-1.58984 -66.49,-1.84375 h -93.02 z m 55.3,-45.394 v -62.942 h 36.11 c 21.43,0 34.79,0.313 40.01,0.953 9.4,1.078 16.84,4.321 22.25,9.727 5.4,5.402 8.07,12.461 8.07,21.234 -0.01,8.457 -2.35,15.258 -6.99,20.539 -4.65,5.274 -11.57,8.453 -20.73,9.535 -5.47,0.633 -21.17,0.954 -47.04,0.954 z m 0,-108.34 V 52.2305 h 51.13 c 19.82,0 32.49,0.5703 37.83,1.6523 8.19,1.5274 14.88,5.1485 20.02,10.9336 5.14,5.8516 7.77,13.543 7.77,23.2695 0,8.2696 -1.98,15.1991 -5.98,20.9181 -3.96,5.723 -9.73,9.918 -17.24,12.527 -7.5,2.606 -23.84,3.942 -48.95,3.942 h -44.58"
         style="fill:#ffffff;fill-opacity:1;fill-rule:evenodd;stroke:none"
         id="path26" /><path
         d="m 3539.71,279.207 h 55.32 V 131.195 c 0,-23.527 0.71,-38.7184 2.04,-45.6481 2.34,-11.1914 7.89,-20.2227 16.66,-26.961 8.84,-6.8007 20.85,-10.1718 36.11,-10.1718 15.45,0 27.16,3.1797 35.04,9.6015 7.87,6.4219 12.58,14.2422 14.18,23.586 1.58,9.3476 2.41,24.7964 2.41,46.4144 l -0.01,151.191 h 55.32 V 135.582 c 0,-32.809 -1.46,-56.0156 -4.44,-69.5547 -3,-13.5429 -8.46,-24.9882 -16.47,-34.3359 -7.96,-9.3437 -18.63,-16.7187 -31.99,-22.24999 -13.42,-5.53516 -30.83,-8.32813 -52.38,-8.32813 -26.01,0 -45.72,2.98828 -59.13,9.02732 -13.43,6.0391 -24.04,13.8594 -31.85,23.5235 -7.84,9.664 -12.91,19.7109 -15.39,30.3281 -3.64,15.6406 -5.41,38.7808 -5.41,69.3628 l -0.01,145.852"
         style="fill:#ffffff;fill-opacity:1;fill-rule:evenodd;stroke:none"
         id="path28" /><path
         d="M 4019.38,6.07031 V 279.207 h 53.54 L 4185.32,96.1641 V 279.207 h 51.11 V 6.07031 h -55.24 L 4070.51,185.621 V 6.07031 h -51.13"
         style="fill:#ffffff;fill-opacity:1;fill-rule:evenodd;stroke:none"
         id="path30" /><path
         d="m 4597.07,279.207 h 55.33 V 106.145 c 0,-22.6372 -1.96,-40.0552 -5.97,-52.2622 -5.34,-15.8945 -15,-28.6758 -29.05,-38.3398 -14,-9.60159 -32.5,-14.42972 -55.51,-14.42972 -26.97,0 -47.69,7.5 -62.18,22.57032 -14.57,15.0664 -21.87,37.1914 -22,66.3125 l 52.26,6.1016 c 0.63,-15.5743 2.87,-26.5743 6.81,-32.9961 5.9,-9.793 14.88,-14.6875 26.95,-14.6875 12.14,0 20.79,3.4961 25.82,10.5547 5.02,6.996 7.56,21.5546 7.56,43.6762 l -0.02,176.562"
         style="fill:#ffffff;fill-opacity:1;fill-rule:evenodd;stroke:none"
         id="path32" /><path
         d="M 5395.81,6.07031 V 279.207 h 55.32 V 158.215 l 111.45,120.992 h 74.15 L 5533.66,172.84 5642.07,6.07031 h -71.34 L 5495.57,134.309 5451.13,88.6602 V 6.07031 h -55.32"
         style="fill:#ffffff;fill-opacity:1;fill-rule:evenodd;stroke:none"
         id="path34" /><path
         d="m 5874.71,279.207 h 55.33 V 131.195 c 0,-23.527 0.7,-38.7184 2.04,-45.6481 2.34,-11.1914 7.88,-20.2227 16.65,-26.961 8.84,-6.8007 20.86,-10.1718 36.12,-10.1718 15.43,0 27.15,3.1797 35.03,9.6015 7.88,6.4219 12.59,14.2422 14.18,23.586 1.58,9.3476 2.42,24.7964 2.42,46.4144 l -0.01,151.191 h 55.32 V 135.582 c 0,-32.809 -1.46,-56.0156 -4.45,-69.5547 -2.99,-13.5429 -8.46,-24.9882 -16.47,-34.3359 -7.96,-9.3437 -18.62,-16.7187 -31.98,-22.24999 -13.43,-5.53516 -30.84,-8.32813 -52.39,-8.32813 -26,0 -45.71,2.98828 -59.13,9.02732 -13.43,6.0391 -24.03,13.8594 -31.85,23.5235 -7.83,9.664 -12.91,19.7109 -15.39,30.3281 -3.64,15.6406 -5.4,38.7808 -5.4,69.3628 l -0.02,145.852"
         style="fill:#ffffff;fill-opacity:1;fill-rule:evenodd;stroke:none"
         id="path36" /><path
         d="M 627.879,273.359 725.605,0.222656 H 665.828 L 597.375,199.777 572.656,273.359 Z M 567.504,114.445 529.906,0.222656 H 471.16 L 541.063,196.742 567.504,114.445"
         style="fill:#ffffff;fill-opacity:1;fill-rule:evenodd;stroke:none"
         id="path38" /><path
         d="M 5042.89,273.359 5140.62,0.222656 h -59.78 L 5012.39,199.734 4987.67,273.359 Z M 4982.52,114.445 4944.92,0.222656 h -58.76 l 69.9,196.519344 26.46,-82.297"
         style="fill:#ffffff;fill-opacity:1;fill-rule:evenodd;stroke:none"
         id="path40" /></g></g></svg>
