<svg width="66" height="60" viewBox="0 0 66 60" fill="none" xmlns="http://www.w3.org/2000/svg">
<path d="M26.5223 8.28279C24.5552 7.29872 22.5607 6.62809 20.9631 6.62809C17.3395 6.62809 13.716 7.9993 10.9533 10.7298C8.97328 12.6845 7.7023 15.0746 7.13963 17.5882M58.679 32.6186C62.2211 29.118 64 24.5267 64 19.9426C64 15.3511 62.2211 10.7594 58.679 7.25897C55.6563 4.26825 51.8316 2.55349 47.8885 2.11522C42.5913 1.52635 37.0825 3.24111 33.021 7.25897L32.9992 7.28034L32.9769 7.25897C29.4351 3.75819 24.7894 2 20.1513 2C15.5059 2 10.8608 3.75819 7.31892 7.25897C0.227027 14.2607 0.227027 25.6169 7.31892 32.6188L32.9992 58L58.679 32.6186Z" stroke="#FF8B36" stroke-width="2.4" stroke-linecap="round" stroke-linejoin="round"/>
</svg>
