<svg width="16" height="15" viewBox="0 0 16 15" fill="none" xmlns="http://www.w3.org/2000/svg">
<path fill-rule="evenodd" clip-rule="evenodd" d="M16 14.75H12.519V9.60872C12.519 8.263 11.9745 7.34432 10.7772 7.34432C9.86132 7.34432 9.35199 7.96427 9.11492 8.56175C9.02602 8.7762 9.03992 9.07493 9.03992 9.37367V14.75H5.59137C5.59137 14.75 5.63582 5.64274 5.59137 4.81489H9.03992V6.37413C9.24365 5.69238 10.3456 4.71937 12.1042 4.71937C14.2859 4.71937 16 6.14844 16 9.22571V14.75ZM2.10392 3.57218H2.0817C0.970457 3.57218 0.25 2.81269 0.25 1.84999C0.25 0.868561 0.991753 0.125 2.12522 0.125C3.25776 0.125 3.95414 0.866697 3.97636 1.84719C3.97636 2.80989 3.25776 3.57218 2.10392 3.57218ZM0.647259 4.81489H3.71707V14.75H0.647259V4.81489Z" fill="white"/>
</svg>
