<svg width="20" height="16" viewBox="0 0 20 16" fill="none" xmlns="http://www.w3.org/2000/svg">
<path fill-rule="evenodd" clip-rule="evenodd" d="M20 1.98952C19.2973 2.30577 18.5407 2.51964 17.747 2.6152C18.5575 2.12376 19.1794 1.3445 19.4724 0.416227C18.7135 0.871265 17.875 1.2023 16.9792 1.37977C16.2653 0.607339 15.2448 0.125 14.1156 0.125C11.9501 0.125 10.1933 1.90533 10.1933 4.10089C10.1933 4.41259 10.227 4.7152 10.2944 5.00642C7.03334 4.84033 4.14276 3.25907 2.20635 0.850784C1.86846 1.44006 1.67538 2.12376 1.67538 2.85182C1.67538 4.23058 2.368 5.44781 3.42096 6.16108C2.77886 6.14174 2.17267 5.96086 1.64283 5.66509V5.714C1.64283 7.64109 2.99551 9.24851 4.7916 9.61254C4.46269 9.70582 4.11582 9.75246 3.75773 9.75246C3.50515 9.75246 3.25819 9.72857 3.01908 9.68193C3.51862 11.2609 4.96671 12.411 6.68423 12.4417C5.34165 13.5088 3.64883 14.1447 1.81121 14.1447C1.49465 14.1447 1.18146 14.1265 0.875 14.0901C2.6116 15.2163 4.67485 15.875 6.88966 15.875C14.1077 15.875 18.0535 9.81731 18.0535 4.56276C18.0535 4.38984 18.0501 4.21693 18.0434 4.04743C18.8101 3.48659 19.4758 2.78697 20 1.98952Z" fill="white"/>
</svg>
